<svg xmlns="http://www.w3.org/2000/svg" xmlns:xlink="http://www.w3.org/1999/xlink" width="1600" zoomAndPan="magnify" viewBox="0 0 1200 591.000005" height="788" preserveAspectRatio="xMidYMid meet" version="1.0"><defs><clipPath id="8a9a462d33"><path d="M 1.011719 0 L 1198.984375 0 L 1198.984375 590 L 1.011719 590 Z M 1.011719 0 " clip-rule="nonzero"/></clipPath><clipPath id="c8c1bc86f7"><path d="M 1.011719 116.542969 L 71.164062 116.542969 L 71.164062 352.390625 L 1.011719 352.390625 Z M 1.011719 116.542969 " clip-rule="nonzero"/></clipPath><clipPath id="a1f7809b34"><path d="M 1139.984375 517.648438 L 1198.984375 517.648438 L 1198.984375 590 L 1139.984375 590 Z M 1139.984375 517.648438 " clip-rule="nonzero"/></clipPath><clipPath id="43fff193c4"><path d="M 60.015625 496.496094 L 108.359375 496.496094 L 108.359375 538.796875 L 60.015625 538.796875 Z M 60.015625 496.496094 " clip-rule="nonzero"/></clipPath><clipPath id="926ea698e6"><path d="M 84.1875 496.496094 L 108.359375 538.796875 L 60.015625 538.796875 L 84.1875 496.496094 " clip-rule="nonzero"/></clipPath><clipPath id="33ebf865e2"><path d="M 1020 101 L 1068 101 L 1068 149 L 1020 149 Z M 1020 101 " clip-rule="nonzero"/></clipPath><clipPath id="08114537e4"><path d="M 1050.105469 84.550781 L 1085.070312 117.9375 L 1055.859375 148.53125 L 1020.894531 115.144531 Z M 1050.105469 84.550781 " clip-rule="nonzero"/></clipPath><clipPath id="c9608208f0"><path d="M 1067.589844 101.242188 L 1055.859375 148.53125 L 1020.894531 115.144531 L 1067.589844 101.242188 " clip-rule="nonzero"/></clipPath><clipPath id="e5a5e1154a"><path d="M 1020.898438 124.1875 L 1069.566406 124.1875 L 1069.566406 172.851562 L 1020.898438 172.851562 Z M 1020.898438 124.1875 " clip-rule="nonzero"/></clipPath><clipPath id="1b80d8d64c"><path d="M 46.96875 172.878906 L 95.636719 172.878906 L 95.636719 221.546875 L 46.96875 221.546875 Z M 46.96875 172.878906 " clip-rule="nonzero"/></clipPath></defs><g clip-path="url(#8a9a462d33)"><path fill="#ffffff" d="M 1.011719 0 L 1198.988281 0 L 1198.988281 597.488281 L 1.011719 597.488281 Z M 1.011719 0 " fill-opacity="1" fill-rule="nonzero"/><path fill="#ffffff" d="M 1.011719 0 L 1198.988281 0 L 1198.988281 590 L 1.011719 590 Z M 1.011719 0 " fill-opacity="1" fill-rule="nonzero"/><path fill="#f2f5f9" d="M 1.011719 0 L 1198.988281 0 L 1198.988281 590 L 1.011719 590 Z M 1.011719 0 " fill-opacity="1" fill-rule="nonzero"/></g><g clip-path="url(#c8c1bc86f7)"><path fill="#0c6ca8" d="M -46.761719 116.542969 C -111.914062 116.542969 -164.6875 169.3125 -164.6875 234.46875 C -164.6875 299.621094 -111.914062 352.390625 -46.761719 352.390625 C 18.390625 352.390625 71.164062 299.621094 71.164062 234.46875 C 71.164062 169.3125 18.390625 116.542969 -46.761719 116.542969 Z M -46.761719 328.808594 C -98.882812 328.808594 -141.101562 286.589844 -141.101562 234.46875 C -141.101562 182.34375 -98.882812 140.125 -46.761719 140.125 C 5.363281 140.125 47.578125 182.34375 47.578125 234.46875 C 47.578125 286.589844 5.363281 328.808594 -46.761719 328.808594 Z M -46.761719 328.808594 " fill-opacity="1" fill-rule="nonzero"/></g><g clip-path="url(#a1f7809b34)"><path fill="#f5f211" d="M 1187.53125 517.648438 C 1161.261719 517.648438 1139.984375 538.921875 1139.984375 565.191406 C 1139.984375 591.460938 1161.261719 612.734375 1187.53125 612.734375 C 1213.800781 612.734375 1235.074219 591.460938 1235.074219 565.191406 C 1235.074219 538.921875 1213.800781 517.648438 1187.53125 517.648438 Z M 1187.53125 603.226562 C 1166.515625 603.226562 1149.496094 586.207031 1149.496094 565.191406 C 1149.496094 544.175781 1166.515625 527.15625 1187.53125 527.15625 C 1208.546875 527.15625 1225.566406 544.175781 1225.566406 565.191406 C 1225.566406 586.207031 1208.546875 603.226562 1187.53125 603.226562 Z M 1187.53125 603.226562 " fill-opacity="1" fill-rule="nonzero"/></g><g clip-path="url(#43fff193c4)"><g clip-path="url(#926ea698e6)"><path fill="#e44650" d="M 60.015625 496.496094 L 108.359375 496.496094 L 108.359375 538.796875 L 60.015625 538.796875 Z M 60.015625 496.496094 " fill-opacity="1" fill-rule="nonzero"/></g></g><g clip-path="url(#33ebf865e2)"><g clip-path="url(#08114537e4)"><g clip-path="url(#c9608208f0)"><path fill="#e44650" d="M 1050.105469 84.550781 L 1085.070312 117.9375 L 1055.859375 148.53125 L 1020.894531 115.144531 Z M 1050.105469 84.550781 " fill-opacity="1" fill-rule="nonzero"/></g></g></g><g clip-path="url(#e5a5e1154a)"><path fill="#f5f211" d="M 1045.230469 124.1875 C 1031.789062 124.1875 1020.898438 135.074219 1020.898438 148.519531 C 1020.898438 161.964844 1031.789062 172.851562 1045.230469 172.851562 C 1058.675781 172.851562 1069.566406 161.964844 1069.566406 148.519531 C 1069.566406 135.074219 1058.675781 124.1875 1045.230469 124.1875 Z M 1045.230469 167.988281 C 1034.476562 167.988281 1025.765625 159.273438 1025.765625 148.519531 C 1025.765625 137.765625 1034.476562 129.050781 1045.230469 129.050781 C 1055.988281 129.050781 1064.699219 137.765625 1064.699219 148.519531 C 1064.699219 159.273438 1055.988281 167.988281 1045.230469 167.988281 Z M 1045.230469 167.988281 " fill-opacity="1" fill-rule="nonzero"/></g><g clip-path="url(#1b80d8d64c)"><path fill="#f5f211" d="M 71.300781 172.878906 C 57.855469 172.878906 46.96875 183.765625 46.96875 197.210938 C 46.96875 210.65625 57.855469 221.546875 71.300781 221.546875 C 84.746094 221.546875 95.636719 210.65625 95.636719 197.210938 C 95.636719 183.765625 84.746094 172.878906 71.300781 172.878906 Z M 71.300781 216.679688 C 60.546875 216.679688 51.835938 207.96875 51.835938 197.210938 C 51.835938 186.457031 60.546875 177.746094 71.300781 177.746094 C 82.058594 177.746094 90.769531 186.457031 90.769531 197.210938 C 90.769531 207.96875 82.058594 216.679688 71.300781 216.679688 Z M 71.300781 216.679688 " fill-opacity="1" fill-rule="nonzero"/></g></svg>