<svg xmlns="http://www.w3.org/2000/svg" xmlns:xlink="http://www.w3.org/1999/xlink" width="500" zoomAndPan="magnify" viewBox="0 0 375 374.999991" height="500" preserveAspectRatio="xMidYMid meet" version="1.0"><defs><clipPath id="1d834fc0e9"><path d="M 75 4 L 300 4 L 300 371 L 75 371 Z M 75 4 " clip-rule="nonzero"/></clipPath></defs><rect x="-37.5" width="450" fill="#ffffff" y="-37.499999" height="449.999989" fill-opacity="1"/><rect x="-37.5" width="450" fill="#ffffff" y="-37.499999" height="449.999989" fill-opacity="1"/><rect x="-37.5" width="450" fill="#ffffff" y="-37.499999" height="449.999989" fill-opacity="1"/><g clip-path="url(#1d834fc0e9)"><path fill="#ff5757" d="M 142.925781 97.351562 L 142.925781 66.882812 C 142.925781 62.640625 145.421875 59.144531 149.417969 57.394531 L 150.914062 56.894531 L 283.019531 5.953125 L 286.515625 4.703125 C 289.761719 3.453125 293.007812 3.953125 295.753906 5.703125 C 298.5 7.699219 300 10.445312 300 13.941406 L 300 88.109375 C 300 92.355469 297.503906 95.851562 293.507812 97.601562 L 292.007812 98.097656 L 106.464844 169.769531 C 102.46875 171.269531 99.972656 175.015625 99.972656 179.257812 L 99.972656 195.492188 C 99.972656 198.988281 101.46875 201.734375 104.21875 203.730469 C 106.964844 205.730469 110.460938 205.980469 113.457031 204.730469 L 282.769531 139.054688 L 286.265625 137.804688 C 289.511719 136.554688 292.757812 137.054688 295.503906 138.804688 C 298.25 140.800781 299.75 143.796875 299.75 147.046875 L 299.75 216.21875 C 299.75 220.464844 297.253906 223.960938 293.257812 225.457031 L 291.757812 225.957031 L 237.070312 247.183594 C 233.074219 248.683594 230.578125 252.429688 230.578125 256.421875 L 230.578125 326.097656 C 230.578125 330.089844 228.578125 333.339844 225.082031 335.085938 L 223.585938 335.835938 L 160.40625 368.050781 L 156.660156 369.796875 C 153.414062 371.546875 149.917969 371.296875 146.921875 369.296875 C 143.921875 367.300781 142.175781 364.304688 142.175781 360.808594 L 142.175781 244.1875 C 142.175781 239.941406 144.671875 236.445312 148.667969 234.699219 L 153.664062 232.699219 C 156.910156 231.449219 160.15625 231.949219 162.902344 233.699219 C 165.648438 235.695312 167.148438 238.441406 167.148438 241.941406 L 167.148438 319.601562 C 167.148438 323.097656 168.894531 326.34375 171.890625 328.09375 C 174.890625 330.089844 178.386719 330.089844 181.632812 328.59375 L 199.613281 319.351562 C 203.109375 317.605469 205.105469 314.359375 205.105469 310.363281 L 205.105469 238.941406 C 205.105469 234.699219 207.601562 231.203125 211.597656 229.703125 L 213.097656 229.203125 L 267.785156 207.976562 C 271.78125 206.480469 274.277344 202.734375 274.277344 198.738281 L 274.277344 183.253906 C 274.277344 179.757812 272.78125 177.011719 270.035156 175.015625 C 267.285156 173.015625 264.039062 172.765625 260.792969 174.015625 L 159.15625 213.472656 L 108.960938 232.949219 L 91.480469 239.691406 L 87.984375 240.941406 C 84.738281 242.1875 81.492188 241.691406 78.746094 239.941406 C 76 237.945312 74.5 234.949219 74.5 231.699219 L 74.5 161.777344 C 74.5 157.535156 76.996094 154.039062 80.992188 152.289062 L 82.492188 151.789062 L 111.460938 140.550781 L 194.617188 108.339844 L 268.035156 79.871094 C 272.03125 78.371094 274.527344 74.625 274.527344 70.378906 L 274.527344 49.652344 C 274.527344 46.15625 273.03125 43.410156 270.28125 41.414062 C 267.535156 39.414062 264.289062 39.164062 261.042969 40.414062 L 174.140625 73.875 C 170.144531 75.375 167.648438 79.121094 167.648438 83.367188 L 167.648438 94.851562 C 167.648438 99.097656 165.148438 102.59375 161.152344 104.34375 L 156.160156 106.339844 C 152.914062 107.589844 149.667969 107.089844 146.921875 105.339844 C 144.171875 103.34375 142.675781 100.597656 142.675781 97.101562 Z M 142.925781 97.351562 " fill-opacity="1" fill-rule="evenodd"/></g></svg>